#!OML:ASF F:\VICON\USERDATA\INSTALL\rory3\rory3.ASF
:FULLY-SPECIFIED
:DEGREES
469
root 0.594481 17.1139 14.6234 8.41554 -5.50583 3.31602
lowerback -9.30183 1.14422 -0.808886
upperback -4.49907 1.5906 -0.877709
thorax 0.553879 0.795119 -0.298597
lowerneck -14.4824 -2.62343 -8.26831
upperneck 25.5841 -3.43441 6.7613
head 10.8939 -1.57108 3.39153
rclavicle -8.87077e-015 -1.8487e-014
rhumerus -41.1213 3.67716 -89.6434
rradius 32.1044
rwrist 2.6116
rhand -23.1091 -50.212
rfingers 7.12502
rthumb 3.33775 -80.1656
lclavicle -8.87077e-015 -1.8487e-014
lhumerus -36.7324 -6.05734 86.0164
lradius 30.4862
lwrist 8.69816
lhand -33.0919 -27.5675
lfingers 7.12502
lthumb -6.30297 2.31868
rfemur -27.7293 1.61603 15.3113
rtibia 74.3701
rfoot 0.306039 -7.52645
rtoes -17.5356
lfemur -24.0209 -6.04976 -28.5819
ltibia 32.5353
lfoot -15.5954 2.81349
ltoes 4.90162
470
root 0.598791 17.1085 14.7473 8.28503 -5.37459 3.62824
lowerback -9.25776 1.02403 -1.14115
upperback -4.42557 1.45962 -0.931659
thorax 0.598657 0.733449 -0.180251
lowerneck -14.4671 -2.55115 -8.09476
upperneck 25.5923 -3.32659 6.57352
head 10.8777 -1.52755 3.30755
rclavicle 5.01931e-015 7.95139e-016
rhumerus -41.1938 3.68823 -89.6069
rradius 32.2418
rwrist 3.39644
rhand -22.5751 -49.4447
rfingers 7.12502
rthumb 3.85345 -79.3896
lclavicle 5.01931e-015 7.95139e-016
lhumerus -36.0336 -6.48115 86.2332
lradius 30.3819
lwrist 8.46072
lhand -33.0038 -26.9082
lfingers 7.12502
lthumb -6.21785 2.98059
rfemur -29.0242 1.40783 14.9927
rtibia 74.9039
rfoot -0.375413 -8.29171
rtoes -16.9276
lfemur -23.3574 -6.24924 -29.0503
ltibia 32.5467
lfoot -16.0661 3.11052
ltoes 4.69027
471
root 0.611038 17.106 14.8805 8.123 -4.92481 3.70528
lowerback -9.32505 0.871456 -1.05327
upperback -4.34461 1.2534 -0.97763
thorax 0.723325 0.628282 -0.294527
lowerneck -14.1633 -2.41719 -8.04194
upperneck 25.5002 -3.19399 6.66424
head 10.7712 -1.45536 3.3483
rclavicle 3.37934e-015 -3.97569e-015
rhumerus -41.4634 3.70253 -89.6625
rradius 32.3753
rwrist 2.64177
rhand -24.277 -47.1448
rfingers 7.12502
rthumb 2.20984 -77.1131
lclavicle 3.37934e-015 -3.97569e-015
lhumerus -35.5701 -7.09755 86.5054
lradius 30.5177
lwrist 8.3618
lhand -33.1594 -26.7568
lfingers 7.12502
lthumb -6.36806 3.12752
rfemur -29.924 0.903422 14.8832
rtibia 75.135
rfoot -1.41683 -8.89564
rtoes -16.0722
lfemur -22.5322 -6.53876 -29.3301
ltibia 32.5276
lfoot -16.6202 3.26638
ltoes 4.36774
472
root 0.595773 17.0891 14.9516 8.05977 -4.93162 3.68726
lowerback -8.83785 0.830171 -1.31766
upperback -4.32053 1.21096 -0.922585
thorax 0.474124 0.612319 -0.101287
lowerneck -14.058 -2.35979 -8.25161
upperneck 25.3477 -3.17438 7.08571
head 10.7015 -1.41783 3.53827
rclavicle -9.7156e-015 8.74653e-015
rhumerus -41.3483 3.63011 -89.6459
rradius 32.7595
rwrist 2.95887
rhand -23.3192 -48.4119
rfingers 7.12502
rthumb 3.13486 -78.3686
lclavicle -9.7156e-015 8.74653e-015
lhumerus -34.7714 -7.93301 86.8174
lradius 30.5164
lwrist 8.48927
lhand -33.5479 -27.1381
lfingers 7.12502
lthumb -6.74312 2.73453
rfemur -31.6693 1.21971 15.1261
rtibia 75.4594
rfoot -2.0476 -9.85914
rtoes -14.6554
lfemur -22.2943 -6.561 -29.2776
ltibia 32.5898
lfoot -16.8566 3.40976
ltoes 3.99543
473
root 0.595818 17.0758 15.0393 8.01026 -4.78186 3.78206
lowerback -8.77666 0.703674 -1.45299
upperback -4.04553 1.05753 -0.936507
thorax 0.723694 0.535236 -0.0517437
lowerneck -14.1915 -2.37394 -8.38324
upperneck 25.0851 -3.20289 7.32723
head 10.6392 -1.41134 3.63888
rclavicle 1.26228e-014 1.07344e-014
rhumerus -40.7258 3.82451 -89.7634
rradius 32.795
rwrist 2.85306
rhand -24.0072 -49.0667
rfingers 7.12502
rthumb 2.47043 -79.0321
lclavicle 1.26228e-014 1.07344e-014
lhumerus -33.5661 -8.87 87.0727
lradius 30.4072
lwrist 8.90671
lhand -33.6684 -27.3094
lfingers 7.12502
lthumb -6.85944 2.5595
rfemur -33.0912 1.18856 15.1207
rtibia 75.5225
rfoot -3.03535 -10.6297
rtoes -14.6757
lfemur -21.9381 -6.69356 -29.4407
ltibia 32.657
lfoot -17.1759 3.50657
ltoes 3.89455
474
root 0.589406 17.0651 15.1487 7.96554 -4.72013 3.67917
lowerback -8.82094 0.606349 -1.49917
upperback -3.88617 0.934263 -0.843699
thorax 0.911581 0.473289 0.0603902
lowerneck -14.104 -2.3155 -8.32308
upperneck 24.9054 -3.10727 7.23015
head 10.5445 -1.37355 3.60089
rclavicle 2.70596e-014 9.93923e-015
rhumerus -40.4843 4.13924 -89.8766
rradius 32.9624
rwrist 2.67349
rhand -24.8122 -49.1302
rfingers 7.12502
rthumb 1.69296 -79.1032
lclavicle 2.70596e-014 9.93923e-015
lhumerus -32.7489 -9.65509 87.3454
lradius 30.4813
lwrist 9.38139
lhand -33.5432 -26.9988
lfingers 7.12502
lthumb -6.73863 2.87397
rfemur -34.3044 1.3512 15.3668
rtibia 75.377
rfoot -4.08139 -11.5613
rtoes -13.9021
lfemur -21.5376 -6.72817 -29.3904
ltibia 32.8356
lfoot -17.6187 3.68019
ltoes 3.91921
475
root 0.588997 17.0536 15.2582 7.88228 -4.44187 4.00481
lowerback -8.57022 0.424825 -1.87785
upperback -3.96602 0.716081 -0.871005
thorax 0.688719 0.370027 0.221418
lowerneck -13.9064 -2.23957 -8.34772
upperneck 24.9264 -2.99818 7.18599
head 10.5031 -1.33469 3.60392
rclavicle -1.55425e-014 -3.37934e-015
rhumerus -40.6561 4.31188 -89.8845
rradius 33.1376
rwrist 2.66341
rhand -25.6515 -47.8954
rfingers 7.12502
rthumb 0.882352 -77.8733
lclavicle -1.55425e-014 -3.37934e-015
lhumerus -32.4024 -10.1532 87.6249
lradius 30.6305
lwrist 9.51996
lhand -33.6104 -27.244
lfingers 7.12502
lthumb -6.80345 2.62671
rfemur -35.4127 1.17473 15.0828
rtibia 75.0809
rfoot -5.26512 -12.425
rtoes -11.644
lfemur -20.95 -6.8845 -29.8349
ltibia 32.786
lfoot -17.9792 3.71923
ltoes 3.84712
476
root 0.562957 17.0396 15.3679 7.71856 -4.72429 3.85814
lowerback -8.34497 0.43458 -2.18547
upperback -3.8858 0.745269 -0.712216
thorax 0.640393 0.389372 0.558352
lowerneck -13.9319 -2.21663 -8.48818
upperneck 24.9285 -2.96174 7.31195
head 10.5093 -1.31641 3.67909
rclavicle -1.14674e-014 -1.92821e-014
rhumerus -40.6338 4.42071 -89.8809
rradius 33.4059
rwrist 2.62288
rhand -26.6229 -46.58
rfingers 7.12502
rthumb -0.0559026 -76.5598
lclavicle -1.14674e-014 -1.92821e-014
lhumerus -31.8742 -10.4546 87.7705
lradius 30.8182
lwrist 9.07027
lhand -33.649 -27.6253
lfingers 7.12502
lthumb -6.84071 2.2442
rfemur -36.5733 1.99244 15.4674
rtibia 74.5873
rfoot -6.09432 -13.6618
rtoes -9.51176
lfemur -20.4435 -6.74363 -29.6681
ltibia 32.8124
lfoot -18.3424 4.01055
ltoes 3.68496
477
root 0.576134 17.0249 15.4675 7.78285 -4.45019 4.78794
lowerback -8.37864 0.227094 -2.98065
upperback -3.78158 0.536849 -0.97486
thorax 0.765049 0.289597 0.71647
lowerneck -14.0403 -2.20344 -8.58265
upperneck 24.7935 -2.93895 7.44542
head 10.4821 -1.29654 3.74367
rclavicle -3.16813e-015 -7.95139e-016
rhumerus -40.4706 4.54304 -89.9348
rradius 33.8505
rwrist 2.30075
rhand -25.8637 -48.0437
rfingers 7.12502
rthumb 0.677419 -78.0223
lclavicle -3.16813e-015 -7.95139e-016
lhumerus -31.1005 -10.8046 87.8408
lradius 31.1228
lwrist 8.24528
lhand -33.4597 -27.4914
lfingers 7.12502
lthumb -6.65796 2.38396
rfemur -37.9279 1.60113 14.3623
rtibia 74.0272
rfoot -7.14158 -14.1453
rtoes -7.63351
lfemur -20.1071 -6.93687 -30.8107
ltibia 32.777
lfoot -18.7075 3.95506
ltoes 3.50678
478
root 0.567513 17.0146 15.5669 7.77916 -4.35327 4.61154
lowerback -8.13963 0.190626 -2.9738
upperback -3.81138 0.476623 -0.88742
thorax 0.603868 0.262529 0.795739
lowerneck -13.8495 -2.14806 -8.52659
upperneck 24.6999 -2.88348 7.43705
head 10.404 -1.26942 3.73537
rclavicle -1.28465e-014 8.94531e-015
rhumerus -40.6061 4.62832 -90.0035
rradius 34.2595
rwrist 2.07227
rhand -24.8254 -50.2341
rfingers 7.12502
rthumb 1.6802 -80.2073
lclavicle -1.28465e-014 8.94531e-015
lhumerus -30.5678 -11.349 88.0333
lradius 31.362
lwrist 7.92569
lhand -33.4407 -27.3189
lfingers 7.12502
lthumb -6.63964 2.55703
rfemur -39.0809 2.01549 14.6486
rtibia 73.139
rfoot -8.01982 -15.1126
rtoes -6.43706
lfemur -19.7838 -6.7999 -30.6484
ltibia 32.8717
lfoot -19.0831 3.8885
ltoes 3.3911
479
root 0.559916 16.9998 15.6652 7.816 -4.25999 4.43693
lowerback -7.89052 0.165407 -2.91102
upperback -3.93586 0.425209 -0.820818
thorax 0.339797 0.241126 0.822783
lowerneck -13.5901 -2.09911 -8.42164
upperneck 24.7202 -2.83722 7.34095
head 10.3533 -1.25409 3.68841
rclavicle 5.8393e-015 1.8487e-014
rhumerus -40.7967 4.71608 -90.0335
rradius 34.3524
rwrist 2.16658
rhand -24.6135 -50.7879
rfingers 7.12502
rthumb 1.88482 -80.7593
lclavicle 5.8393e-015 1.8487e-014
lhumerus -30.2531 -12.0142 88.3318
lradius 31.5689
lwrist 8.18383
lhand -33.8201 -27.7018
lfingers 7.12502
lthumb -7.00592 2.16225
rfemur -40.1574 2.39203 14.9213
rtibia 72.0897
rfoot -8.57893 -16.1544
rtoes -6.12266
lfemur -19.4281 -6.70413 -30.4968
ltibia 32.8792
lfoot -19.3965 3.90977
ltoes 3.26223
